<svg xmlns="http://www.w3.org/2000/svg" viewBox="0 0 1440 1024">
  <path fill="#002147" d="M0,512 C360,682 1080,342 1440,512 L1440,1024 L0,1024 Z"></path>
  <path fill="#003566" d="M0,562 C360,732 1080,392 1440,562 L1440,1024 L0,1024 Z"></path>
  <path fill="#004c8c" d="M0,612 C360,782 1080,442 1440,612 L1440,1024 L0,1024 Z"></path>
  <path fill="#0077b6" d="M0,662 C360,832 1080,492 1440,662 L1440,1024 L0,1024 Z"></path>
  <path fill="#00b4d8" d="M0,712 C360,882 1080,542 1440,712 L1440,1024 L0,1024 Z"></path>
</svg>
